<svg xmlns="http://www.w3.org/2000/svg" viewBox="0 0 512 512" width="100%" height="100%">
  <defs>
    <linearGradient id="favGradient" x1="0%" y1="0%" x2="100%" y2="100%">
      <stop offset="0%" stop-color="#6366f1" />
      <stop offset="100%" stop-color="#a855f7" />
    </linearGradient>
  </defs>
  <!-- Background Card -->
  <rect width="512" height="512" rx="128" fill="url(#favGradient)" />
  <!-- Camera / Gallery Icon -->
  <path d="M368 192h-42.7l-18.7-32H205.4l-18.7 32H144c-17.7 0-32 14.3-32 32v160c0 17.7 14.3 32 32 32h224c17.7 0 32-14.3 32-32V224c0-17.7-14.3-32-32-32zm-112 160c-35.3 0-64-28.7-64-64s28.7-64 64-64 64 28.7 64 64-28.7 64-64 64z" fill="#ffffff" />
  <circle cx="256" cy="288" r="32" fill="#ffffff" />
</svg>
